<svg width="400" height="400" viewBox="0 0 400 400" fill="none" xmlns="http://www.w3.org/2000/svg">
<path fill-rule="evenodd" clip-rule="evenodd" d="M393.835 150.531C386.002 152.692 377.751 153.846 369.231 153.846C318.251 153.846 276.923 112.519 276.923 61.5385C276.923 46.5186 280.51 32.3367 286.875 19.8026C260.602 7.11304 231.132 0 200 0C89.543 0 0 89.543 0 200C0 310.457 89.543 400 200 400C310.457 400 400 310.457 400 200C400 182.926 397.861 166.352 393.835 150.531Z" fill="#4482BA"/>
<path d="M244.208 97.6016C245.366 95.3741 248.552 95.3741 249.71 97.6016L336.108 263.875C337.18 265.939 335.683 268.404 333.357 268.404H155.457L244.208 97.6016Z" fill="#FFBA88"/>
<path d="M197.249 97.6016C198.407 95.3741 201.593 95.3741 202.751 97.6016L291.502 268.404H108.498L197.249 97.6016Z" fill="#FF964B"/>
<path d="M150.29 97.6016C151.448 95.3741 154.634 95.3741 155.792 97.6016L244.543 268.404H97.7627C81.2583 268.404 70.631 250.906 78.2409 236.26L150.29 97.6016Z" fill="#FF6B00"/>
</svg>
